# AST/ASF file generated using VICON BodyLanguage
# -----------------------------------------------
:version 1.10
:name VICON
:units
  mass 1.0
  length 0.45
  angle deg
:documentation
   .ast/.asf automatically generated from VICON data using
   VICON BodyBuilder and BodyLanguage model FoxedUp or BRILLIANT.MOD
:root
   order TX TY TZ RX RY RZ
   axis XYZ
   position 0 0 0  
   orientation 0 0 0 
:bonedata
  begin
     id 1 
     name lhipjoint
     direction 0.588788 -0.725889 0.355548 
     length 2.37778 
     axis 0 0 0  XYZ
  end
  begin
     id 2 
     name lfemur
     direction 0.34202 -0.939693 0  
     length 6.86393  
     axis 0 0 20  XYZ
    dof rx ry rz
    limits (-160.0 20.0)
           (-70.0 70.0)
           (-60.0 70.0)
  end
  begin
     id 3 
     name ltibia
     direction 0.34202 -0.939693 0   
     length 7.32851   
     axis 0 0 20   XYZ
    dof rx
    limits (-10.0 170.0)
  end
  begin
     id 4 
     name lfoot
     direction 0.0626533 -0.172138 0.983078   
     length 1.98929   
     axis -90 7.62852e-016 20   XYZ
    dof rx rz
    limits (-45.0 90.0)
           (-70.0 20.0)
  end
  begin
     id 5 
     name ltoes
     direction 1.53647e-011 -4.21734e-011 1   
     length 1.00479   
     axis -90 7.62852e-016 20   XYZ
    dof rx
    limits (-90.0 20.0)
  end
  begin
     id 6 
     name rhipjoint
     direction -0.59141 -0.724168 0.354705   
     length 2.38343  
     axis 0 0 0  XYZ 
  end
  begin
     id 7 
     name rfemur
     direction -0.34202 -0.939693 0   
     length 6.95589   
     axis 0 0 -20   XYZ
    dof rx ry rz
    limits (-160.0 20.0)
           (-70.0 70.0)
           (-70.0 60.0)
  end
  begin
     id 8 
     name rtibia
     direction -0.34202 -0.939693 0   
     length 7.32327   
     axis 0 0 -20   XYZ
    dof rx
    limits (-10.0 170.0)
 end
 begin
     id 9 
     name rfoot
     direction -0.0660461 -0.18146 0.981178   
     length 1.85272  
     axis -90 -7.62852e-016 -20   XYZ
    dof rx rz
    limits (-45.0 90.0)
           (-20.0 70.0)
  end
  begin
     id 10 
     name rtoes
     direction -1.53586e-011 -4.21988e-011 1   
     length 0.93746   
     axis -90 -7.62852e-016 -20   XYZ
    dof rx
    limits (-90.0 20.0)
  end
  begin
     id 11 
     name lowerback
     direction -0.0107982 0.991059 0.13299   
     length 1.98691   
     axis 0 0 0   XYZ
    dof rx ry rz
    limits (-20.0 45.0)
           (-30.0 30.0)
           (-30.0 30.0)
  end
  begin
     id 12 
     name upperback
     direction 0.0076296 0.999916 0.0104576   
     length 1.99501   
     axis 0 0 0   XYZ
    dof rx ry rz
    limits (-20.0 45.0)
           (-30.0 30.0)
           (-30.0 30.0)
  end
  begin
     id 13 
     name thorax
     direction 0.01176 0.998615 -0.0512909   
     length 2.03144   
     axis 0 0 0   XYZ
    dof rx ry rz
    limits (-20.0 45.0)
           (-30.0 30.0)
           (-30.0 30.0)
  end
  begin
     id 14 
     name lowerneck
     direction -0.0171909 0.999644 0.0204011   
     length 1.71818   
     axis 0 0 0   XYZ
    dof rx ry rz
    limits (-20.0 45.0)
           (-30.0 30.0)
           (-30.0 30.0)
  end
  begin
     id 15 
     name upperneck
     direction 0.0250902 0.997482 -0.0663316   
     length 1.66199   
     axis 0 0 0   XYZ
    dof rx ry rz
    limits (-20.0 45.0)
           (-30.0 30.0)
           (-30.0 30.0)
  end
  begin
     id 16
     name head
     direction 0.00881535 0.99956 -0.0283365  
     length 1.81545  
     axis 0 0 0   XYZ
    dof rx ry rz
    limits (-20.0 45.0)
           (-30.0 30.0)
           (-30.0 30.0)
  end
  begin
     id 17 
     name lclavicle
     direction 0.840411 0.486876 -0.238035  
     length 3.30409  
     axis 0 0 0   XYZ
    dof ry rz
    limits (-20.0 10.0)
           (0.0 20.0)
  end
  begin
     id 18 
     name lhumerus
     direction 1 -4.48977e-011 -5.16239e-027   
     length 4.62672   
     axis 180 -30 -90   XYZ
    dof rx ry rz
    limits (-60.0 90.0)
           (-90.0 90.0)
           (-90.0 90.0)
  end
  begin
     id 19
     name lradius
     direction 1 -4.48977e-011 -8.71171e-027   
     length 3.11018   
     axis 180 -30 -90   XYZ
    dof rx
    limits (-10.0 170.0)
  end
  begin
     id 20
     name lwrist
     direction 1 -4.48912e-011 -1.03764e-026   
     length 1.55509   
     axis 9.09556e-015 90 90   XYZ
    dof ry
    limits (-180.0 0.0)
 end
  begin
     id 21 
     name lhand
     direction 1 -4.49072e-011 -2.07528e-026   
     length 0.743834   
     axis 1.3242e-014 90 90   XYZ
    dof rx rz
    limits (-90.0 90.0)
           (-45.0 45.0)
  end
  begin
     id 22 
     name lfingers
     direction 1 -4.48909e-011 -4.15056e-026   
     length 0.599698   
     axis 2.64841e-014 90 90   XYZ
    dof rx
    limits (0.0 90.0)
  end
  begin
     id 23
     name lthumb
     direction 0.707107 -6.35013e-011 0.707107   
     length 0.86105   
     axis -90 45 2.85299e-015   XYZ
    dof rx rz
    limits (-45.0 45.0)
           (-45.0 45.0)
  end
  begin
     id 24 
     name rclavicle
     direction -0.835208 0.500237 -0.228452   
     length 3.2716  
     axis 0 0 0   XYZ 
    dof ry rz
    limits (-10.0 20.0)
           (-20.0 0.0)
  end
  begin
     id 25 
     name rhumerus
     direction -1 -4.48978e-011 -5.1953e-028  
     length 4.55919   
     axis 180 30 90   XYZ
    dof rx ry rz
    limits (-90.0 60.0)
           (-90.0 90.0)
           (-90.0 90.0)
  end
  begin
     id 26 
     name rradius
     direction -1 -4.48961e-011 -5.99546e-027   
     length 3.22748   
     axis 180 30 90   XYZ
    dof rx
    limits (-10.0 170.0)
  end
  begin
     id 27 
     name rwrist
     direction -1 -4.48986e-011 -1.03764e-026   
     length 1.61374   
     axis 9.09556e-015 -90 -90   XYZ
    dof ry
    limits (-180.0 0.0)
  end
  begin
     id 28
     name rhand
     direction -1 -4.4899e-011 -2.07528e-026   
     length 0.700882   
     axis 1.3242e-014 -90 -90   XYZ
    dof rx rz
    limits (-90.0 90.0)
           (-45.0 45.0)
  end
  begin
     id 29
     name rfingers
     direction -1 -4.48991e-011 -4.15056e-026   
     length 0.565069   
     axis 2.64841e-014 -90 -90   XYZ
    dof rx
    limits (0.0 90.0)
  end
  begin
     id 30
     name rthumb
     direction -0.707107 -6.34804e-011 0.707107   
     length 0.811329   
     axis -90 -45 -2.85299e-015   XYZ
    dof rx rz
    limits (-45.0 45.0)
           (-45.0 45.0)
  end
:hierarchy
  begin
    root lhipjoint rhipjoint lowerback
    lhipjoint lfemur
    lfemur ltibia
    ltibia lfoot
    lfoot ltoes
    rhipjoint rfemur
    rfemur rtibia
    rtibia rfoot
    rfoot rtoes
    lowerback upperback
    upperback thorax
    thorax lowerneck lclavicle rclavicle
    lowerneck upperneck
    upperneck head
    lclavicle lhumerus
    lhumerus lradius
    lradius lwrist
    lwrist lhand lthumb
    lhand lfingers
    rclavicle rhumerus
    rhumerus rradius
    rradius rwrist
    rwrist rhand rthumb
    rhand rfingers
  end

#!OML:ASF F:\VICON\USERDATA\INSTALL\SteveWalk\SteveWalk.ASF
:FULLY-SPECIFIED
:DEGREES
317
root -0.048143 15.8635 24.1607 20.4161 -1.63897 0.497766
lowerback -18.8631 1.61201 -3.37161
upperback -5.49618 2.80383 -0.950758
thorax 4.51166 1.37463 1.52291
lowerneck -5.49519 -0.87778 -0.620767
upperneck 8.3733 -1.25938 1.53324
head 3.70656 -0.576385 0.553279
rclavicle -7.74639e-015 1.23246e-014
rhumerus -19.1867 4.62828 -83.7296
rradius 57.2334
rwrist -16.116
rhand -18.1645 -34.7511
rfingers 7.12502
rthumb 8.11162 -64.5755
lclavicle -7.74639e-015 1.23246e-014
lhumerus -78.893 30.5212 20.4361
lradius 8.78629
lwrist -55.8536
lhand -12.602 -10.2603
lfingers 7.12502
lthumb 13.4769 19.2837
rfemur -4.92631 -2.4299 18.2912
rtibia 36.2964
rfoot 3.09284 19.258
rtoes 0.110558
lfemur -52.7067 2.74681 -23.3762
ltibia 32.2438
lfoot -3.3004 -1.90762
ltoes -15.878
318
root -0.0254865 15.8763 24.3931 19.7095 -0.825205 1.2841
lowerback -18.156 1.24263 -4.00302
upperback -5.34443 2.42123 -1.17286
thorax 4.30136 1.18814 1.54055
lowerneck -5.44147 -0.982681 -0.747817
upperneck 8.42369 -1.4203 1.87081
head 3.72128 -0.645588 0.679688
rclavicle -4.49067e-014 -1.59028e-014
rhumerus -20.4846 4.5464 -83.953
rradius 57.7449
rwrist -17.2416
rhand -19.6747 -37.8778
rfingers 7.12502
rthumb 6.65388 -67.7533
lclavicle -4.49067e-014 -1.59028e-014
lhumerus -78.7006 30.9768 20.3594
lradius 8.71095
lwrist -55.825
lhand -12.6511 -10.461
lfingers 7.12502
lthumb 13.4295 19.0861
rfemur -5.16204 -2.89448 17.6079
rtibia 38.864
rfoot 6.78071 18.2962
rtoes 0.199316
lfemur -51.7079 1.75807 -23.9752
ltibia 33.5021
lfoot -3.97734 -2.5916
ltoes -11.9003
319
root -0.0273509 15.8985 24.6169 19.4635 -1.0743 1.70861
lowerback -17.7975 1.16486 -4.77627
upperback -5.40605 2.43983 -1.29539
thorax 4.01485 1.20415 1.83726
lowerneck -5.35895 -0.988755 -0.932686
upperneck 8.61116 -1.44869 2.23552
head 3.77844 -0.649405 0.832786
rclavicle -1.18246e-014 4.37326e-015
rhumerus -21.866 4.18679 -84.2483
rradius 57.9807
rwrist -17.1917
rhand -20.1887 -41.1222
rfingers 7.12502
rthumb 6.15765 -71.0127
lclavicle -1.18246e-014 4.37326e-015
lhumerus -78.8117 31.0602 20.0923
lradius 9.09359
lwrist -55.6376
lhand -12.1322 -10.9968
lfingers 7.12502
lthumb 13.9296 18.5166
rfemur -6.29854 -2.27059 17.0572
rtibia 41.6737
rfoot 9.48236 17.9305
rtoes -1.01335
lfemur -51.0029 1.71363 -24.3811
ltibia 34.3887
lfoot -4.50722 -2.60241
ltoes -9.7719
320
root -0.0141349 15.9184 24.8503 19.2617 -1.06929 1.97772
lowerback -17.6294 1.046 -5.1239
upperback -5.44875 2.33729 -1.40634
thorax 3.87597 1.1575 1.88863
lowerneck -5.01361 -0.938794 -1.05968
upperneck 8.56193 -1.40098 2.56545
head 3.6983 -0.618258 0.967356
rclavicle 2.1051e-014 -2.42517e-014
rhumerus -23.2785 3.91833 -84.6375
rradius 57.8949
rwrist -17.1069
rhand -20.6388 -41.6494
rfingers 7.12502
rthumb 5.72313 -71.5521
lclavicle 2.1051e-014 -2.42517e-014
lhumerus -79.0209 31.2544 19.7111
lradius 9.44413
lwrist -55.483
lhand -11.7299 -11.0727
lfingers 7.12502
lthumb 14.3172 18.4137
rfemur -7.48127 -2.14303 16.6293
rtibia 44.5678
rfoot 12.1051 18.4111
rtoes -2.12199
lfemur -50.1838 1.60101 -24.744
ltibia 35.0596
lfoot -5.12941 -2.47907
ltoes -8.36115
321
root 0.00904674 15.9467 25.0816 19.106 -1.02568 2.13085
lowerback -17.6579 0.976414 -5.13085
upperback -5.35403 2.26021 -1.54593
thorax 4.00314 1.11367 1.73208
lowerneck -4.8481 -0.944082 -0.954769
upperneck 8.411 -1.41905 2.6173
head 3.61283 -0.623673 0.964365
rclavicle 1.5176e-014 2.34566e-014
rhumerus -24.3896 3.59044 -85.0327
rradius 57.6104
rwrist -17.2716
rhand -20.6503 -41.8552
rfingers 7.12502
rthumb 5.71195 -71.7583
lclavicle 1.5176e-014 2.34566e-014
lhumerus -78.9694 31.8828 19.4078
lradius 9.50868
lwrist -55.4911
lhand -11.7 -11.2602
lfingers 7.12502
lthumb 14.3461 18.2241
rfemur -8.80763 -2.16379 16.2863
rtibia 47.503
rfoot 15.4275 18.5796
rtoes -0.824891
lfemur -49.3701 1.57588 -25.1131
ltibia 35.6309
lfoot -6.03499 -2.5207
ltoes -8.117
322
root 0.0239341 15.9743 25.3009 18.9251 -1.35658 2.41912
lowerback -17.5552 0.930572 -5.42496
upperback -5.24535 2.2544 -1.67055
thorax 4.05747 1.10648 1.76336
lowerneck -4.9331 -0.92387 -0.791391
upperneck 8.38363 -1.39464 2.50104
head 3.61584 -0.610828 0.89786
rclavicle -1.4092e-014 9.14409e-015
rhumerus -25.309 3.17988 -85.3416
rradius 57.4215
rwrist -16.7658
rhand -18.4754 -44.9029
rfingers 7.12502
rthumb 7.81147 -74.7386
lclavicle -1.4092e-014 9.14409e-015
lhumerus -79.1293 32.5682 19.0044
lradius 9.66225
lwrist -55.5155
lhand -11.8666 -12.1094
lfingers 7.12502
lthumb 14.1856 17.3862
rfemur -10.2542 -1.82307 15.8046
rtibia 50.3857
rfoot 18.0756 18.0841
rtoes -2.69935
lfemur -48.5212 1.78156 -25.6399
ltibia 36.0724
lfoot -6.89491 -2.57946
ltoes -7.70389
323
root 0.0320141 15.9969 25.5238 18.7042 -1.91157 2.77318
lowerback -17.4974 0.93505 -5.90222
upperback -5.16762 2.3477 -1.80199
thorax 4.08733 1.14867 1.91061
lowerneck -4.94383 -0.87439 -0.759471
upperneck 8.44922 -1.33856 2.57045
head 3.64037 -0.57866 0.918153
rclavicle -1.83255e-014 6.36111e-015
rhumerus -26.182 2.76968 -85.6462
rradius 57.1176
rwrist -15.871
rhand -11.2812 -55.974
rfingers 7.12502
rthumb 14.7496 -85.4292
lclavicle -1.83255e-014 6.36111e-015
lhumerus -79.3241 33.1262 18.6106
lradius 9.95902
lwrist -55.5524
lhand -11.8035 -13.0394
lfingers 7.12502
lthumb 14.2464 16.4519
rfemur -11.6301 -1.43407 15.2285
rtibia 53.134
rfoot 20.1743 17.0817
rtoes -6.52122
lfemur -47.5559 1.99155 -26.1492
ltibia 36.4422
lfoot -7.44719 -2.22638
ltoes -7.04459
324
root 0.0357466 16.023 25.7585 18.5241 -2.5686 3.25495
lowerback -17.6034 0.882659 -6.53211
upperback -5.13802 2.4052 -1.97299
thorax 4.14864 1.17202 2.09796
lowerneck -4.88335 -0.780044 -0.7952
upperneck 8.58489 -1.23326 2.80607
head 3.67742 -0.517321 1.00841
rclavicle 1.00821e-014 2.0276e-014
rhumerus -27.1494 2.72289 -86.2386
rradius 56.2503
rwrist -16.6517
rhand -12.3087 -54.3216
rfingers 7.12502
rthumb 13.7595 -83.8466
lclavicle 1.00821e-014 2.0276e-014
lhumerus -79.6463 33.797 18.0461
lradius 10.2533
lwrist -55.7501
lhand -11.6935 -13.5242
lfingers 7.12502
lthumb 14.3524 15.9596
rfemur -13.0016 -1.11119 14.5083
rtibia 55.8517
rfoot 22.1117 15.2159
rtoes -6.4719
lfemur -46.4423 2.25633 -26.8068
ltibia 36.6164
lfoot -8.14491 -1.64137
ltoes -6.86577
325
root 0.0634614 16.0505 25.9826 18.4385 -2.66901 3.28559
lowerback -17.6272 0.830661 -6.26413
upperback -5.11154 2.29855 -2.07297
thorax 4.21503 1.11661 1.82138
lowerneck -5.1014 -0.734378 -0.801233
upperneck 8.89907 -1.19369 2.96299
head 3.83219 -0.487293 1.06599
rclavicle 4.52546e-015 -1.47101e-014
rhumerus -28.1748 2.84353 -87.0326
rradius 54.7242
rwrist -19.79
rhand -20.369 -40.0784
rfingers 7.12502
rthumb 5.9836 -69.9739
lclavicle 4.52546e-015 -1.47101e-014
lhumerus -78.7805 34.3529 19.4057
lradius 10.3979
lwrist -54.7678
lhand -11.9573 -13.9491
lfingers 7.12502
lthumb 14.0982 15.5526
rfemur -14.3848 -1.38525 14.3332
rtibia 58.4402
rfoot 22.702 13.2662
rtoes -5.95521
lfemur -45.4337 2.22923 -27.0034
ltibia 36.739
lfoot -8.99929 -1.0652
ltoes -7.60146
326
root 0.0782182 16.0815 26.1792 18.2836 -3.13367 3.78166
lowerback -17.3568 0.791418 -6.72293
upperback -5.11571 2.31142 -2.25318
thorax 4.05274 1.12634 1.88224
lowerneck -5.17998 -0.689719 -0.846282
upperneck 9.09281 -1.14454 3.0665
head 3.91703 -0.457938 1.11268
rclavicle 1.46107e-014 -2.46493e-014
rhumerus -28.9735 2.07659 -87.2813
rradius 53.9496
rwrist -18.6778
rhand -18.6773 -40.968
rfingers 7.12502
rthumb 7.61665 -70.8109
lclavicle 1.46107e-014 -2.46493e-014
lhumerus -75.894 34.0504 24.2633
lradius 10.6843
lwrist -50.827
lhand -12.3477 -14.0769
lfingers 7.12502
lthumb 13.722 15.4507
rfemur -16.122 -1.39559 13.6785
rtibia 60.9928
rfoot 22.1123 11.2229
rtoes -6.81161
lfemur -44.4783 2.20897 -27.6195
ltibia 36.774
lfoot -9.57764 -0.480024
ltoes -6.80529
327
root 0.103454 16.1118 26.3782 18.213 -3.16064 3.88353
lowerback -17.1646 0.73775 -6.53265
upperback -5.15853 2.19387 -2.34729
thorax 3.92656 1.07293 1.64697
lowerneck -5.10769 -0.632664 -0.917299
upperneck 9.2083 -1.08112 3.23753
head 3.94511 -0.421205 1.18671
rclavicle -1.78968e-014 6.36111e-015
rhumerus -29.6708 1.50624 -87.5719
rradius 52.8069
rwrist -17.9662
rhand -18.5548 -40.5025
rfingers 7.12502
rthumb 7.73482 -70.341
lclavicle -1.78968e-014 6.36111e-015
lhumerus -73.5106 33.8905 28.0051
lradius 10.9023
lwrist -47.8794
lhand -12.4679 -14.1708
lfingers 7.12502
lthumb 13.6061 15.3646
rfemur -17.8263 -1.80517 13.507
rtibia 63.4857
rfoot 20.1452 9.63883
rtoes -8.06163
lfemur -43.5488 2.04385 -27.8275
ltibia 36.7265
lfoot -10.2353 0.0198916
ltoes -7.78377
328
root 0.145212 16.1416 26.615 18.3201 -2.79161 3.65861
lowerback -17.6174 0.649385 -5.68959
upperback -5.15284 1.97385 -2.39509
thorax 4.22488 0.956413 1.09068
lowerneck -4.87794 -0.567441 -0.88408
upperneck 9.21403 -1.00591 3.33444
head 3.90065 -0.380513 1.21642
rclavicle 4.08906e-015 -1.94809e-014
rhumerus -30.5176 1.07904 -87.9324
rradius 50.5695
rwrist -18.5912
rhand -20.3706 -31.0012
rfingers 7.12502
rthumb 5.98199 -60.8967
lclavicle 4.08906e-015 -1.94809e-014
lhumerus -71.8794 34.1637 30.3106
lradius 11.068
lwrist -46.3027
lhand -12.7652 -14.1541
lfingers 7.12502
lthumb 13.3195 15.4002
rfemur -19.2239 -2.72862 13.6381
rtibia 65.6017
rfoot 17.1748 9.01728
rtoes -8.74263
lfemur -42.5406 1.74093 -27.7522
ltibia 36.5946
lfoot -11.083 0.392675
ltoes -9.65102
329
root 0.132967 16.1533 26.779 18.1558 -3.37563 4.28549
lowerback -16.9953 0.507286 -6.68283
upperback -5.27818 1.89971 -2.4864
thorax 3.72908 0.934936 1.5209
lowerneck -4.64707 -0.487803 -0.871101
upperneck 9.14573 -0.901899 3.37447
head 3.82861 -0.329533 1.23111
rclavicle -5.09347e-015 -1.90833e-014
rhumerus -31.1953 0.431102 -88.122
rradius 48.9078
rwrist -17.7225
rhand -18.7639 -32.5638
rfingers 7.12502
rthumb 7.53303 -62.4097
lclavicle -5.09347e-015 -1.90833e-014
lhumerus -69.3274 33.7252 34.4324
lradius 11.492
lwrist -43.0439
lhand -12.967 -14.1265
lfingers 7.12502
lthumb 13.125 15.4404
rfemur -21.3253 -2.53 13.082
rtibia 67.8573
rfoot 14.6336 7.82456
rtoes -8.11172
lfemur -41.7294 1.87092 -28.4043
ltibia 36.4577
lfoot -11.7725 0.926324
ltoes -12.18
330
root 0.134918 16.1691 26.9841 18.1743 -3.41178 4.28946
lowerback -16.998 0.337061 -6.79878
upperback -5.31078 1.68922 -2.41364
thorax 3.70405 0.832627 1.62185
lowerneck -4.65561 -0.437199 -0.794841
upperneck 9.20622 -0.839387 3.34518
head 3.84907 -0.29675 1.21125
rclavicle 3.76864e-014 -3.26007e-014
rhumerus -31.9447 -0.141563 -88.2772
rradius 47.3519
rwrist -17.3234
rhand -18.6712 -32.2618
rfingers 7.12502
rthumb 7.62248 -62.1045
lclavicle 3.76864e-014 -3.26007e-014
lhumerus -66.7227 33.0561 38.5832
lradius 11.9771
lwrist -39.855
lhand -13.1699 -14.1518
lfingers 7.12502
lthumb 12.9294 15.4277
rfemur -23.0986 -2.71577 13.2768
rtibia 69.6231
rfoot 12.0656 6.66794
rtoes -5.32705
lfemur -40.9695 1.78273 -28.3559
ltibia 36.3633
lfoot -12.9036 1.40906
ltoes -14.2626
